<?xml version="1.0" encoding="UTF-8"?>
<svg width="139px" height="105px" viewBox="0 0 139 105" version="1.1" xmlns="http://www.w3.org/2000/svg" xmlns:xlink="http://www.w3.org/1999/xlink">
    <!-- Generator: Sketch 51.3 (57544) - http://www.bohemiancoding.com/sketch -->
    <title>b</title>
    <desc>Created with Sketch.</desc>
    <defs></defs>
    <g id="Page-1" stroke="none" stroke-width="1" fill="none" fill-rule="evenodd">
        <g id="Artboard" transform="translate(-151.000000, -200.000000)" fill="#1976D2">
            <path d="M220.28125,259.500738 C224.031269,259.688239 225.999999,261.188224 226.1875,264.000738 C226.1875,266.25075 224.968762,267.656986 222.53125,268.219488 C220.093738,268.59449 218.406255,267.563251 217.46875,265.125738 C216.531245,262.688226 216.812492,260.3445 218.3125,258.094488 C219.812508,255.844477 221.874987,254.625739 224.5,254.438238 C230.875032,253.875736 234.906242,256.219462 236.59375,261.469488 C238.468759,267.84452 236.40628,272.625722 230.40625,275.813238 C225.906227,278.250751 221.406273,278.531998 216.90625,276.656988 C212.406227,274.781979 209.218759,271.219515 207.34375,265.969488 C204.906238,259.219455 205.23436,252.422648 208.328125,245.578863 C211.42189,238.735079 216.624963,234.281999 223.9375,232.219488 C229.187526,230.719481 235.281215,231.094477 242.21875,233.344488 C243.156255,233.531989 246.390597,234.422605 251.921875,236.016363 C257.453153,237.610121 261.718735,238.781985 264.71875,239.531988 C269.031272,240.469493 272.781234,239.953873 275.96875,237.985113 C279.156266,236.016354 281.218745,232.969509 282.15625,228.844488 C283.093755,225.09447 282.765633,221.532005 281.171875,218.156988 C279.578117,214.781972 277.187516,212.625743 274,211.688238 C269.874979,210.375732 266.593762,211.219473 264.15625,214.219488 C263.968749,214.406989 263.312506,215.813225 262.1875,218.438238 L262.75,218.719488 C262.937501,218.719488 263.218748,218.625739 263.59375,218.438238 C263.968752,218.250737 264.249999,218.156988 264.4375,218.156988 C266.50001,216.844482 268.468741,217.125729 270.34375,219.000738 C272.031258,220.688247 272.406255,222.563228 271.46875,224.625738 C270.531245,226.87575 268.750013,227.81324 266.125,227.438238 C263.687488,227.063237 262.000005,225.938248 261.0625,224.063238 C260.124995,222.188229 260.031246,219.844502 260.78125,217.031988 C261.718755,214.219474 263.499987,212.11012 266.125,210.703863 C268.750013,209.297606 271.656234,208.969485 274.84375,209.719488 C279.718774,210.844494 283.468737,213.516342 286.09375,217.735113 C288.718763,221.953884 289.656254,226.500714 288.90625,231.375738 C288.156246,237.188267 285.625022,241.875721 281.3125,245.438238 C276.999978,249.000756 271.84378,250.875737 265.84375,251.063238 C259.656219,251.063238 252.718788,249.375755 245.03125,246.000738 C244.468747,246.000738 243.625006,245.719491 242.5,245.156988 C243.625006,246.469495 245.124991,248.250727 247,250.500738 C252.812529,258.375778 253.562522,267.656935 249.25,278.344488 C244.937478,288.094537 237.156306,295.125717 225.90625,299.438238 C208.281162,306.750775 190.937585,306.750775 173.875,299.438238 C163.749949,295.500719 157.093766,288.938284 153.90625,279.750738 C151.468738,273.000705 151.187491,266.391396 153.0625,259.922613 C154.937509,253.453831 158.781221,248.06326 164.59375,243.750738 C165.531255,243.000735 168.062479,241.219502 172.1875,238.406988 C171.062494,231.844456 170.5,228.37574 170.5,228.000738 C169.749996,218.438191 173.171837,210.938266 180.765625,205.500738 C188.359413,200.063211 196.468707,198.656975 205.09375,201.281988 C210.531277,202.969497 214.328114,206.344463 216.484375,211.406988 C218.640636,216.469514 218.406263,221.250716 215.78125,225.750738 C212.781235,231.188266 207.906284,233.344494 201.15625,232.219488 C195.718723,231.281984 192.437506,228.188265 191.3125,222.938238 C190.749997,220.688227 190.937495,218.625748 191.875,216.750738 C192.812505,214.875729 194.31249,213.656991 196.375,213.094488 C197.875008,212.719487 199.187494,213.094483 200.3125,214.219488 C199.749997,214.219488 199.281252,214.406987 198.90625,214.781988 C196.656239,215.906994 195.390626,217.735101 195.109375,220.266363 C194.828124,222.797626 195.624991,224.813231 197.5,226.313238 C201.43752,229.125752 205.37498,229.500749 209.3125,227.438238 C212.687517,225.75073 214.656247,222.563262 215.21875,217.875738 C215.593752,212.063209 213.109402,207.51638 207.765625,204.235113 C202.421848,200.953847 196.75003,200.719474 190.75,203.531988 C184.937471,206.344502 180.953136,210.656959 178.796875,216.469488 C176.640614,222.282017 176.781238,228.375707 179.21875,234.750738 C179.593752,235.688243 180.437493,235.96949 181.75,235.594488 C185.500019,235.031986 188.874985,235.406982 191.875,236.719488 C197.500028,238.781999 199.656257,242.250714 198.34375,247.125738 C197.593746,249.37575 196.140636,251.063233 193.984375,252.188238 C191.828114,253.313244 189.437513,253.594491 186.8125,253.031988 C181.749975,252.094484 177.625016,248.719517 174.4375,242.906988 C174.062498,242.344486 173.500004,241.313246 172.75,239.813238 C166.562469,243.375756 162.906256,248.250707 161.78125,254.438238 C159.906241,269.250812 165.437435,281.063194 178.375,289.875738 C186.43754,295.313266 196.187443,297.985114 207.625,297.891363 C219.062557,297.797613 228.81246,294.844517 236.875,289.031988 C245.312542,283.031958 249.812497,275.250786 250.375,265.688238 C250.562501,259.125706 248.500022,253.641385 244.1875,249.235113 C239.874978,244.828841 234.812529,242.531989 229,242.344488 C219.999955,241.969487 213.718768,245.250704 210.15625,252.188238 C207.156235,257.813267 207.343733,263.43821 210.71875,269.063238 C214.281268,273.938263 218.968721,276.281989 224.78125,276.094488 C230.031276,275.719487 233.406243,273.37576 234.90625,269.063238 C236.406257,264.563216 235.468767,260.719504 232.09375,257.531988 C230.218741,256.031981 228.062512,255.469487 225.625,255.844488 C223.187488,256.21949 221.406256,257.438228 220.28125,259.500738 Z" id="b"></path>
        </g>
    </g>
</svg>